<svg width="2000" height="132" viewBox="0 0 2000 132" fill="none" xmlns="http://www.w3.org/2000/svg">
<g clip-path="url(#clip0_638_654)">
<rect width="2000" height="132" fill="#FFC404"/>
<path d="M-0.885468 66.08C-0.832135 67.44 -0.405469 68.5333 0.394531 69.36C1.2212 70.1867 2.43453 70.6 4.03453 70.6C4.91453 70.6 5.7012 70.44 6.39453 70.12C7.08787 69.7733 7.72787 69.2667 8.31453 68.6C10.5812 69.48 13.2345 70.24 16.2745 70.88C15.3945 72.9333 13.9012 74.5333 11.7945 75.68C9.71453 76.8267 7.00787 77.4 3.67453 77.4C-0.778801 77.4 -4.07213 76.36 -6.20547 74.28C-8.3388 72.2 -9.40547 69.4667 -9.40547 66.08C-9.40547 62.6933 -8.3388 59.96 -6.20547 57.88C-4.07213 55.8 -0.778801 54.76 3.67453 54.76C7.00787 54.76 9.71453 55.3333 11.7945 56.48C13.9012 57.6267 15.3945 59.2267 16.2745 61.28C13.9012 61.7867 11.2479 62.5467 8.31453 63.56C7.72787 62.8933 7.08787 62.4 6.39453 62.08C5.7012 61.7333 4.91453 61.56 4.03453 61.56C2.43453 61.56 1.2212 61.9733 0.394531 62.8C-0.405469 63.6267 -0.832135 64.72 -0.885468 66.08ZM32.1558 77.4C27.5958 77.4 24.2358 76.36 22.0758 74.28C19.9424 72.1733 18.8758 69.4133 18.8758 66C18.8758 62.6667 19.9424 59.96 22.0758 57.88C24.2358 55.8 27.5958 54.76 32.1558 54.76C35.2224 54.76 37.7824 55.2667 39.8358 56.28C41.9158 57.2667 43.4491 58.6133 44.4358 60.32C45.4224 62 45.9158 63.8933 45.9158 66C45.9158 69.44 44.7691 72.2 42.4758 74.28C40.2091 76.36 36.7691 77.4 32.1558 77.4ZM32.3158 70.6C34.0491 70.6 35.3424 70.1867 36.1958 69.36C37.0491 68.5333 37.4758 67.4267 37.4758 66.04C37.4758 64.7333 37.0491 63.6667 36.1958 62.84C35.3424 61.9867 34.0491 61.56 32.3158 61.56C30.5824 61.56 29.3158 61.9733 28.5158 62.8C27.7158 63.6267 27.3158 64.7067 27.3158 66.04C27.3158 67.4267 27.7158 68.5333 28.5158 69.36C29.3158 70.1867 30.5824 70.6 32.3158 70.6ZM79.7289 77C79.9422 73.5067 80.0489 69.8933 80.0489 66.16C80.0489 64.96 79.7422 64.0267 79.1289 63.36C78.5422 62.6667 77.7556 62.32 76.7689 62.32C75.8622 62.32 75.0756 62.72 74.4089 63.52C73.7689 64.32 73.4489 65.48 73.4489 67V66.96C73.4489 71.68 73.5156 75.0267 73.6489 77H64.6489C64.8089 73.08 64.8889 69.4667 64.8889 66.16C64.8889 64.9867 64.5956 64.0533 64.0089 63.36C63.4489 62.6667 62.7289 62.32 61.8489 62.32C60.9156 62.32 60.1289 62.72 59.4889 63.52C58.8756 64.2933 58.5156 65.36 58.4089 66.72C58.3556 68.7467 58.3289 70.1867 58.3289 71.04C58.3289 72.8533 58.3822 74.84 58.4889 77H48.9289C49.1422 73.16 49.2489 69.5333 49.2489 66.12C49.2489 62.7067 49.1422 59.0533 48.9289 55.16C50.6889 55.24 52.0356 55.28 52.9689 55.28C53.9556 55.28 55.3022 55.24 57.0089 55.16L58.2089 61.08C58.8222 58.92 59.7956 57.3333 61.1289 56.32C62.4622 55.28 63.9956 54.76 65.7289 54.76C67.8089 54.76 69.5022 55.3333 70.8089 56.48C72.1422 57.6267 72.9689 59.12 73.2889 60.96C73.9022 59.0667 74.9289 57.56 76.3689 56.44C77.8089 55.32 79.4489 54.76 81.2889 54.76C83.6889 54.76 85.5689 55.5733 86.9289 57.2C88.2889 58.8 88.9689 61 88.9689 63.8V70.44C88.9689 73.4533 88.9956 75.64 89.0489 77H79.7289ZM97.9952 52.8C96.3152 52.8 95.0618 52.3867 94.2352 51.56C93.4352 50.7333 93.0352 49.6533 93.0352 48.32C93.0352 47.0133 93.4352 45.9333 94.2352 45.08C95.0618 44.2267 96.3152 43.8 97.9952 43.8C99.5952 43.8 100.822 44.24 101.675 45.12C102.528 45.9733 102.955 47.04 102.955 48.32C102.955 49.6533 102.542 50.7333 101.715 51.56C100.888 52.3867 99.6485 52.8 97.9952 52.8ZM93.3552 77C93.5418 72.7067 93.6352 69.16 93.6352 66.36C93.6352 63.0267 93.5285 59.2933 93.3152 55.16H102.915C102.702 59.1333 102.595 62.8667 102.595 66.36C102.595 69.2933 102.688 72.84 102.875 77H93.3552ZM122.141 77C122.301 73.08 122.381 69.4667 122.381 66.16C122.381 64.9867 122.088 64.0533 121.501 63.36C120.941 62.6667 120.221 62.32 119.341 62.32C118.461 62.32 117.715 62.72 117.101 63.52C116.488 64.2933 116.128 65.36 116.021 66.72C115.968 68.7467 115.941 70.1867 115.941 71.04C115.941 72.8533 115.995 74.84 116.101 77H106.541C106.755 73.16 106.861 69.5333 106.861 66.12C106.861 62.7067 106.755 59.0533 106.541 55.16C108.301 55.24 109.648 55.28 110.581 55.28C111.568 55.28 112.915 55.24 114.621 55.16L115.781 61.04C116.395 58.9067 117.355 57.3333 118.661 56.32C119.968 55.28 121.488 54.76 123.221 54.76C124.821 54.76 126.208 55.12 127.381 55.84C128.555 56.5333 129.435 57.48 130.021 58.68C130.635 59.88 130.941 61.2267 130.941 62.72V68.48C130.941 72.0267 131.008 74.8667 131.141 77H122.141ZM153.234 55.16H160.914C160.781 59.5333 160.714 65.7467 160.714 73.8C160.714 76.9733 160.074 79.5733 158.794 81.6C157.541 83.6267 155.874 85.0933 153.794 86C151.714 86.9333 149.394 87.4 146.834 87.4C144.301 87.4 142.034 87.0267 140.034 86.28C138.034 85.56 136.514 84.5867 135.474 83.36L137.274 77.24C138.714 78.0667 140.074 78.6533 141.354 79C142.634 79.3733 143.967 79.56 145.354 79.56C149.887 79.56 152.154 77.64 152.154 73.8C152.154 73.24 152.167 72.84 152.194 72.6C152.194 72.44 152.194 72.2267 152.194 71.96C152.221 71.6933 152.221 71.3467 152.194 70.92C150.834 74.7067 147.954 76.6 143.554 76.6C141.767 76.6 140.167 76.12 138.754 75.16C137.367 74.2 136.287 72.9067 135.514 71.28C134.741 69.6267 134.354 67.8133 134.354 65.84C134.354 63.8133 134.741 61.96 135.514 60.28C136.287 58.5733 137.367 57.2267 138.754 56.24C140.141 55.2533 141.701 54.76 143.434 54.76C147.941 54.76 150.874 56.3467 152.234 59.52L153.234 55.16ZM147.714 70.2C148.327 70.2 148.967 70.0667 149.634 69.8C150.301 69.5067 150.874 69.0533 151.354 68.44C151.834 67.8 152.074 67.0133 152.074 66.08C152.074 64.4267 151.701 63.2533 150.954 62.56C150.207 61.84 149.101 61.48 147.634 61.48C146.354 61.48 145.341 61.9067 144.594 62.76C143.847 63.6133 143.474 64.72 143.474 66.08C143.474 67.3067 143.874 68.3067 144.674 69.08C145.501 69.8267 146.514 70.2 147.714 70.2ZM185.047 77.4C182.807 77.4 180.527 77.0933 178.207 76.48C175.914 75.84 173.754 74.88 171.727 73.6L175.927 67.88C177.154 68.76 178.634 69.4533 180.367 69.96C182.101 70.44 183.594 70.68 184.847 70.68C186.047 70.68 186.967 70.52 187.607 70.2C188.274 69.8533 188.607 69.4133 188.607 68.88C188.607 68.4533 188.447 68.12 188.127 67.88C187.807 67.64 187.367 67.52 186.807 67.52C186.461 67.52 186.061 67.5333 185.607 67.56C185.181 67.5867 184.834 67.6133 184.567 67.64C183.181 67.8 181.754 67.88 180.287 67.88C177.914 67.88 175.981 67.44 174.487 66.56C173.021 65.6533 172.287 64.1867 172.287 62.16C172.287 59.8133 173.394 58 175.607 56.72C177.821 55.4133 181.074 54.76 185.367 54.76C187.474 54.76 189.594 55.0667 191.727 55.68C193.887 56.2667 195.794 57.16 197.447 58.36L192.847 63C191.327 62.2 189.901 61.64 188.567 61.32C187.261 60.9733 185.941 60.8 184.607 60.8C183.674 60.8 182.874 60.9867 182.207 61.36C181.541 61.7333 181.207 62.16 181.207 62.64C181.207 63.0133 181.341 63.3067 181.607 63.52C181.901 63.7333 182.274 63.84 182.727 63.84C183.181 63.84 183.807 63.8 184.607 63.72C186.554 63.5867 188.007 63.52 188.967 63.52C191.741 63.52 193.887 63.9867 195.407 64.92C196.927 65.8533 197.687 67.28 197.687 69.2C197.687 72.08 196.567 74.1733 194.327 75.48C192.087 76.76 188.994 77.4 185.047 77.4ZM213.367 77.4C208.807 77.4 205.447 76.36 203.287 74.28C201.153 72.1733 200.087 69.4133 200.087 66C200.087 62.6667 201.153 59.96 203.287 57.88C205.447 55.8 208.807 54.76 213.367 54.76C216.433 54.76 218.993 55.2667 221.047 56.28C223.127 57.2667 224.66 58.6133 225.647 60.32C226.633 62 227.127 63.8933 227.127 66C227.127 69.44 225.98 72.2 223.687 74.28C221.42 76.36 217.98 77.4 213.367 77.4ZM213.527 70.6C215.26 70.6 216.553 70.1867 217.407 69.36C218.26 68.5333 218.687 67.4267 218.687 66.04C218.687 64.7333 218.26 63.6667 217.407 62.84C216.553 61.9867 215.26 61.56 213.527 61.56C211.793 61.56 210.527 61.9733 209.727 62.8C208.927 63.6267 208.527 64.7067 208.527 66.04C208.527 67.4267 208.927 68.5333 209.727 69.36C210.527 70.1867 211.793 70.6 213.527 70.6ZM242.82 77.4C238.26 77.4 234.9 76.36 232.74 74.28C230.607 72.1733 229.54 69.4133 229.54 66C229.54 62.6667 230.607 59.96 232.74 57.88C234.9 55.8 238.26 54.76 242.82 54.76C245.887 54.76 248.447 55.2667 250.5 56.28C252.58 57.2667 254.113 58.6133 255.1 60.32C256.087 62 256.58 63.8933 256.58 66C256.58 69.44 255.433 72.2 253.14 74.28C250.873 76.36 247.433 77.4 242.82 77.4ZM242.98 70.6C244.713 70.6 246.007 70.1867 246.86 69.36C247.713 68.5333 248.14 67.4267 248.14 66.04C248.14 64.7333 247.713 63.6667 246.86 62.84C246.007 61.9867 244.713 61.56 242.98 61.56C241.247 61.56 239.98 61.9733 239.18 62.8C238.38 63.6267 237.98 64.7067 237.98 66.04C237.98 67.4267 238.38 68.5333 239.18 69.36C239.98 70.1867 241.247 70.6 242.98 70.6ZM274.993 77C275.153 73.08 275.233 69.4667 275.233 66.16C275.233 64.9867 274.94 64.0533 274.353 63.36C273.793 62.6667 273.073 62.32 272.193 62.32C271.313 62.32 270.566 62.72 269.953 63.52C269.34 64.2933 268.98 65.36 268.873 66.72C268.82 68.7467 268.793 70.1867 268.793 71.04C268.793 72.8533 268.846 74.84 268.953 77H259.393C259.606 73.16 259.713 69.5333 259.713 66.12C259.713 62.7067 259.606 59.0533 259.393 55.16C261.153 55.24 262.5 55.28 263.433 55.28C264.42 55.28 265.766 55.24 267.473 55.16L268.633 61.04C269.246 58.9067 270.206 57.3333 271.513 56.32C272.82 55.28 274.34 54.76 276.073 54.76C277.673 54.76 279.06 55.12 280.233 55.84C281.406 56.5333 282.286 57.48 282.873 58.68C283.486 59.88 283.793 61.2267 283.793 62.72V68.48C283.793 72.0267 283.86 74.8667 283.993 77H274.993Z" fill="black"/>
<path d="M344.115 66.08C344.168 67.44 344.595 68.5333 345.395 69.36C346.221 70.1867 347.435 70.6 349.035 70.6C349.915 70.6 350.701 70.44 351.395 70.12C352.088 69.7733 352.728 69.2667 353.315 68.6C355.581 69.48 358.235 70.24 361.275 70.88C360.395 72.9333 358.901 74.5333 356.795 75.68C354.715 76.8267 352.008 77.4 348.675 77.4C344.221 77.4 340.928 76.36 338.795 74.28C336.661 72.2 335.595 69.4667 335.595 66.08C335.595 62.6933 336.661 59.96 338.795 57.88C340.928 55.8 344.221 54.76 348.675 54.76C352.008 54.76 354.715 55.3333 356.795 56.48C358.901 57.6267 360.395 59.2267 361.275 61.28C358.901 61.7867 356.248 62.5467 353.315 63.56C352.728 62.8933 352.088 62.4 351.395 62.08C350.701 61.7333 349.915 61.56 349.035 61.56C347.435 61.56 346.221 61.9733 345.395 62.8C344.595 63.6267 344.168 64.72 344.115 66.08ZM377.156 77.4C372.596 77.4 369.236 76.36 367.076 74.28C364.942 72.1733 363.876 69.4133 363.876 66C363.876 62.6667 364.942 59.96 367.076 57.88C369.236 55.8 372.596 54.76 377.156 54.76C380.222 54.76 382.782 55.2667 384.836 56.28C386.916 57.2667 388.449 58.6133 389.436 60.32C390.422 62 390.916 63.8933 390.916 66C390.916 69.44 389.769 72.2 387.476 74.28C385.209 76.36 381.769 77.4 377.156 77.4ZM377.316 70.6C379.049 70.6 380.342 70.1867 381.196 69.36C382.049 68.5333 382.476 67.4267 382.476 66.04C382.476 64.7333 382.049 63.6667 381.196 62.84C380.342 61.9867 379.049 61.56 377.316 61.56C375.582 61.56 374.316 61.9733 373.516 62.8C372.716 63.6267 372.316 64.7067 372.316 66.04C372.316 67.4267 372.716 68.5333 373.516 69.36C374.316 70.1867 375.582 70.6 377.316 70.6ZM424.729 77C424.942 73.5067 425.049 69.8933 425.049 66.16C425.049 64.96 424.742 64.0267 424.129 63.36C423.542 62.6667 422.756 62.32 421.769 62.32C420.862 62.32 420.076 62.72 419.409 63.52C418.769 64.32 418.449 65.48 418.449 67V66.96C418.449 71.68 418.516 75.0267 418.649 77H409.649C409.809 73.08 409.889 69.4667 409.889 66.16C409.889 64.9867 409.596 64.0533 409.009 63.36C408.449 62.6667 407.729 62.32 406.849 62.32C405.916 62.32 405.129 62.72 404.489 63.52C403.876 64.2933 403.516 65.36 403.409 66.72C403.356 68.7467 403.329 70.1867 403.329 71.04C403.329 72.8533 403.382 74.84 403.489 77H393.929C394.142 73.16 394.249 69.5333 394.249 66.12C394.249 62.7067 394.142 59.0533 393.929 55.16C395.689 55.24 397.036 55.28 397.969 55.28C398.956 55.28 400.302 55.24 402.009 55.16L403.209 61.08C403.822 58.92 404.796 57.3333 406.129 56.32C407.462 55.28 408.996 54.76 410.729 54.76C412.809 54.76 414.502 55.3333 415.809 56.48C417.142 57.6267 417.969 59.12 418.289 60.96C418.902 59.0667 419.929 57.56 421.369 56.44C422.809 55.32 424.449 54.76 426.289 54.76C428.689 54.76 430.569 55.5733 431.929 57.2C433.289 58.8 433.969 61 433.969 63.8V70.44C433.969 73.4533 433.996 75.64 434.049 77H424.729ZM442.995 52.8C441.315 52.8 440.062 52.3867 439.235 51.56C438.435 50.7333 438.035 49.6533 438.035 48.32C438.035 47.0133 438.435 45.9333 439.235 45.08C440.062 44.2267 441.315 43.8 442.995 43.8C444.595 43.8 445.822 44.24 446.675 45.12C447.528 45.9733 447.955 47.04 447.955 48.32C447.955 49.6533 447.542 50.7333 446.715 51.56C445.888 52.3867 444.648 52.8 442.995 52.8ZM438.355 77C438.542 72.7067 438.635 69.16 438.635 66.36C438.635 63.0267 438.528 59.2933 438.315 55.16H447.915C447.702 59.1333 447.595 62.8667 447.595 66.36C447.595 69.2933 447.688 72.84 447.875 77H438.355ZM467.141 77C467.301 73.08 467.381 69.4667 467.381 66.16C467.381 64.9867 467.088 64.0533 466.501 63.36C465.941 62.6667 465.221 62.32 464.341 62.32C463.461 62.32 462.715 62.72 462.101 63.52C461.488 64.2933 461.128 65.36 461.021 66.72C460.968 68.7467 460.941 70.1867 460.941 71.04C460.941 72.8533 460.995 74.84 461.101 77H451.541C451.755 73.16 451.861 69.5333 451.861 66.12C451.861 62.7067 451.755 59.0533 451.541 55.16C453.301 55.24 454.648 55.28 455.581 55.28C456.568 55.28 457.915 55.24 459.621 55.16L460.781 61.04C461.395 58.9067 462.355 57.3333 463.661 56.32C464.968 55.28 466.488 54.76 468.221 54.76C469.821 54.76 471.208 55.12 472.381 55.84C473.555 56.5333 474.435 57.48 475.021 58.68C475.635 59.88 475.941 61.2267 475.941 62.72V68.48C475.941 72.0267 476.008 74.8667 476.141 77H467.141ZM498.234 55.16H505.914C505.781 59.5333 505.714 65.7467 505.714 73.8C505.714 76.9733 505.074 79.5733 503.794 81.6C502.541 83.6267 500.874 85.0933 498.794 86C496.714 86.9333 494.394 87.4 491.834 87.4C489.301 87.4 487.034 87.0267 485.034 86.28C483.034 85.56 481.514 84.5867 480.474 83.36L482.274 77.24C483.714 78.0667 485.074 78.6533 486.354 79C487.634 79.3733 488.967 79.56 490.354 79.56C494.887 79.56 497.154 77.64 497.154 73.8C497.154 73.24 497.167 72.84 497.194 72.6C497.194 72.44 497.194 72.2267 497.194 71.96C497.221 71.6933 497.221 71.3467 497.194 70.92C495.834 74.7067 492.954 76.6 488.554 76.6C486.767 76.6 485.167 76.12 483.754 75.16C482.367 74.2 481.287 72.9067 480.514 71.28C479.741 69.6267 479.354 67.8133 479.354 65.84C479.354 63.8133 479.741 61.96 480.514 60.28C481.287 58.5733 482.367 57.2267 483.754 56.24C485.141 55.2533 486.701 54.76 488.434 54.76C492.941 54.76 495.874 56.3467 497.234 59.52L498.234 55.16ZM492.714 70.2C493.327 70.2 493.967 70.0667 494.634 69.8C495.301 69.5067 495.874 69.0533 496.354 68.44C496.834 67.8 497.074 67.0133 497.074 66.08C497.074 64.4267 496.701 63.2533 495.954 62.56C495.207 61.84 494.101 61.48 492.634 61.48C491.354 61.48 490.341 61.9067 489.594 62.76C488.847 63.6133 488.474 64.72 488.474 66.08C488.474 67.3067 488.874 68.3067 489.674 69.08C490.501 69.8267 491.514 70.2 492.714 70.2ZM530.047 77.4C527.807 77.4 525.527 77.0933 523.207 76.48C520.914 75.84 518.754 74.88 516.727 73.6L520.927 67.88C522.154 68.76 523.634 69.4533 525.367 69.96C527.101 70.44 528.594 70.68 529.847 70.68C531.047 70.68 531.967 70.52 532.607 70.2C533.274 69.8533 533.607 69.4133 533.607 68.88C533.607 68.4533 533.447 68.12 533.127 67.88C532.807 67.64 532.367 67.52 531.807 67.52C531.461 67.52 531.061 67.5333 530.607 67.56C530.181 67.5867 529.834 67.6133 529.567 67.64C528.181 67.8 526.754 67.88 525.287 67.88C522.914 67.88 520.981 67.44 519.487 66.56C518.021 65.6533 517.287 64.1867 517.287 62.16C517.287 59.8133 518.394 58 520.607 56.72C522.821 55.4133 526.074 54.76 530.367 54.76C532.474 54.76 534.594 55.0667 536.727 55.68C538.887 56.2667 540.794 57.16 542.447 58.36L537.847 63C536.327 62.2 534.901 61.64 533.567 61.32C532.261 60.9733 530.941 60.8 529.607 60.8C528.674 60.8 527.874 60.9867 527.207 61.36C526.541 61.7333 526.207 62.16 526.207 62.64C526.207 63.0133 526.341 63.3067 526.607 63.52C526.901 63.7333 527.274 63.84 527.727 63.84C528.181 63.84 528.807 63.8 529.607 63.72C531.554 63.5867 533.007 63.52 533.967 63.52C536.741 63.52 538.887 63.9867 540.407 64.92C541.927 65.8533 542.687 67.28 542.687 69.2C542.687 72.08 541.567 74.1733 539.327 75.48C537.087 76.76 533.994 77.4 530.047 77.4ZM558.367 77.4C553.807 77.4 550.447 76.36 548.287 74.28C546.153 72.1733 545.087 69.4133 545.087 66C545.087 62.6667 546.153 59.96 548.287 57.88C550.447 55.8 553.807 54.76 558.367 54.76C561.433 54.76 563.993 55.2667 566.047 56.28C568.127 57.2667 569.66 58.6133 570.647 60.32C571.633 62 572.127 63.8933 572.127 66C572.127 69.44 570.98 72.2 568.687 74.28C566.42 76.36 562.98 77.4 558.367 77.4ZM558.527 70.6C560.26 70.6 561.553 70.1867 562.407 69.36C563.26 68.5333 563.687 67.4267 563.687 66.04C563.687 64.7333 563.26 63.6667 562.407 62.84C561.553 61.9867 560.26 61.56 558.527 61.56C556.793 61.56 555.527 61.9733 554.727 62.8C553.927 63.6267 553.527 64.7067 553.527 66.04C553.527 67.4267 553.927 68.5333 554.727 69.36C555.527 70.1867 556.793 70.6 558.527 70.6ZM587.82 77.4C583.26 77.4 579.9 76.36 577.74 74.28C575.607 72.1733 574.54 69.4133 574.54 66C574.54 62.6667 575.607 59.96 577.74 57.88C579.9 55.8 583.26 54.76 587.82 54.76C590.887 54.76 593.447 55.2667 595.5 56.28C597.58 57.2667 599.113 58.6133 600.1 60.32C601.087 62 601.58 63.8933 601.58 66C601.58 69.44 600.433 72.2 598.14 74.28C595.873 76.36 592.433 77.4 587.82 77.4ZM587.98 70.6C589.713 70.6 591.007 70.1867 591.86 69.36C592.713 68.5333 593.14 67.4267 593.14 66.04C593.14 64.7333 592.713 63.6667 591.86 62.84C591.007 61.9867 589.713 61.56 587.98 61.56C586.247 61.56 584.98 61.9733 584.18 62.8C583.38 63.6267 582.98 64.7067 582.98 66.04C582.98 67.4267 583.38 68.5333 584.18 69.36C584.98 70.1867 586.247 70.6 587.98 70.6ZM619.993 77C620.153 73.08 620.233 69.4667 620.233 66.16C620.233 64.9867 619.94 64.0533 619.353 63.36C618.793 62.6667 618.073 62.32 617.193 62.32C616.313 62.32 615.566 62.72 614.953 63.52C614.34 64.2933 613.98 65.36 613.873 66.72C613.82 68.7467 613.793 70.1867 613.793 71.04C613.793 72.8533 613.846 74.84 613.953 77H604.393C604.606 73.16 604.713 69.5333 604.713 66.12C604.713 62.7067 604.606 59.0533 604.393 55.16C606.153 55.24 607.5 55.28 608.433 55.28C609.42 55.28 610.766 55.24 612.473 55.16L613.633 61.04C614.246 58.9067 615.206 57.3333 616.513 56.32C617.82 55.28 619.34 54.76 621.073 54.76C622.673 54.76 624.06 55.12 625.233 55.84C626.406 56.5333 627.286 57.48 627.873 58.68C628.486 59.88 628.793 61.2267 628.793 62.72V68.48C628.793 72.0267 628.86 74.8667 628.993 77H619.993Z" fill="black"/>
<path d="M689.115 66.08C689.168 67.44 689.595 68.5333 690.395 69.36C691.221 70.1867 692.435 70.6 694.035 70.6C694.915 70.6 695.701 70.44 696.395 70.12C697.088 69.7733 697.728 69.2667 698.315 68.6C700.581 69.48 703.235 70.24 706.275 70.88C705.395 72.9333 703.901 74.5333 701.795 75.68C699.715 76.8267 697.008 77.4 693.675 77.4C689.221 77.4 685.928 76.36 683.795 74.28C681.661 72.2 680.595 69.4667 680.595 66.08C680.595 62.6933 681.661 59.96 683.795 57.88C685.928 55.8 689.221 54.76 693.675 54.76C697.008 54.76 699.715 55.3333 701.795 56.48C703.901 57.6267 705.395 59.2267 706.275 61.28C703.901 61.7867 701.248 62.5467 698.315 63.56C697.728 62.8933 697.088 62.4 696.395 62.08C695.701 61.7333 694.915 61.56 694.035 61.56C692.435 61.56 691.221 61.9733 690.395 62.8C689.595 63.6267 689.168 64.72 689.115 66.08ZM722.156 77.4C717.596 77.4 714.236 76.36 712.076 74.28C709.942 72.1733 708.876 69.4133 708.876 66C708.876 62.6667 709.942 59.96 712.076 57.88C714.236 55.8 717.596 54.76 722.156 54.76C725.222 54.76 727.782 55.2667 729.836 56.28C731.916 57.2667 733.449 58.6133 734.436 60.32C735.422 62 735.916 63.8933 735.916 66C735.916 69.44 734.769 72.2 732.476 74.28C730.209 76.36 726.769 77.4 722.156 77.4ZM722.316 70.6C724.049 70.6 725.342 70.1867 726.196 69.36C727.049 68.5333 727.476 67.4267 727.476 66.04C727.476 64.7333 727.049 63.6667 726.196 62.84C725.342 61.9867 724.049 61.56 722.316 61.56C720.582 61.56 719.316 61.9733 718.516 62.8C717.716 63.6267 717.316 64.7067 717.316 66.04C717.316 67.4267 717.716 68.5333 718.516 69.36C719.316 70.1867 720.582 70.6 722.316 70.6ZM769.729 77C769.942 73.5067 770.049 69.8933 770.049 66.16C770.049 64.96 769.742 64.0267 769.129 63.36C768.542 62.6667 767.756 62.32 766.769 62.32C765.862 62.32 765.076 62.72 764.409 63.52C763.769 64.32 763.449 65.48 763.449 67V66.96C763.449 71.68 763.516 75.0267 763.649 77H754.649C754.809 73.08 754.889 69.4667 754.889 66.16C754.889 64.9867 754.596 64.0533 754.009 63.36C753.449 62.6667 752.729 62.32 751.849 62.32C750.916 62.32 750.129 62.72 749.489 63.52C748.876 64.2933 748.516 65.36 748.409 66.72C748.356 68.7467 748.329 70.1867 748.329 71.04C748.329 72.8533 748.382 74.84 748.489 77H738.929C739.142 73.16 739.249 69.5333 739.249 66.12C739.249 62.7067 739.142 59.0533 738.929 55.16C740.689 55.24 742.036 55.28 742.969 55.28C743.956 55.28 745.302 55.24 747.009 55.16L748.209 61.08C748.822 58.92 749.796 57.3333 751.129 56.32C752.462 55.28 753.996 54.76 755.729 54.76C757.809 54.76 759.502 55.3333 760.809 56.48C762.142 57.6267 762.969 59.12 763.289 60.96C763.902 59.0667 764.929 57.56 766.369 56.44C767.809 55.32 769.449 54.76 771.289 54.76C773.689 54.76 775.569 55.5733 776.929 57.2C778.289 58.8 778.969 61 778.969 63.8V70.44C778.969 73.4533 778.996 75.64 779.049 77H769.729ZM787.995 52.8C786.315 52.8 785.062 52.3867 784.235 51.56C783.435 50.7333 783.035 49.6533 783.035 48.32C783.035 47.0133 783.435 45.9333 784.235 45.08C785.062 44.2267 786.315 43.8 787.995 43.8C789.595 43.8 790.822 44.24 791.675 45.12C792.528 45.9733 792.955 47.04 792.955 48.32C792.955 49.6533 792.542 50.7333 791.715 51.56C790.888 52.3867 789.648 52.8 787.995 52.8ZM783.355 77C783.542 72.7067 783.635 69.16 783.635 66.36C783.635 63.0267 783.528 59.2933 783.315 55.16H792.915C792.702 59.1333 792.595 62.8667 792.595 66.36C792.595 69.2933 792.688 72.84 792.875 77H783.355ZM812.141 77C812.301 73.08 812.381 69.4667 812.381 66.16C812.381 64.9867 812.088 64.0533 811.501 63.36C810.941 62.6667 810.221 62.32 809.341 62.32C808.461 62.32 807.715 62.72 807.101 63.52C806.488 64.2933 806.128 65.36 806.021 66.72C805.968 68.7467 805.941 70.1867 805.941 71.04C805.941 72.8533 805.995 74.84 806.101 77H796.541C796.755 73.16 796.861 69.5333 796.861 66.12C796.861 62.7067 796.755 59.0533 796.541 55.16C798.301 55.24 799.648 55.28 800.581 55.28C801.568 55.28 802.915 55.24 804.621 55.16L805.781 61.04C806.395 58.9067 807.355 57.3333 808.661 56.32C809.968 55.28 811.488 54.76 813.221 54.76C814.821 54.76 816.208 55.12 817.381 55.84C818.555 56.5333 819.435 57.48 820.021 58.68C820.635 59.88 820.941 61.2267 820.941 62.72V68.48C820.941 72.0267 821.008 74.8667 821.141 77H812.141ZM843.234 55.16H850.914C850.781 59.5333 850.714 65.7467 850.714 73.8C850.714 76.9733 850.074 79.5733 848.794 81.6C847.541 83.6267 845.874 85.0933 843.794 86C841.714 86.9333 839.394 87.4 836.834 87.4C834.301 87.4 832.034 87.0267 830.034 86.28C828.034 85.56 826.514 84.5867 825.474 83.36L827.274 77.24C828.714 78.0667 830.074 78.6533 831.354 79C832.634 79.3733 833.967 79.56 835.354 79.56C839.887 79.56 842.154 77.64 842.154 73.8C842.154 73.24 842.167 72.84 842.194 72.6C842.194 72.44 842.194 72.2267 842.194 71.96C842.221 71.6933 842.221 71.3467 842.194 70.92C840.834 74.7067 837.954 76.6 833.554 76.6C831.767 76.6 830.167 76.12 828.754 75.16C827.367 74.2 826.287 72.9067 825.514 71.28C824.741 69.6267 824.354 67.8133 824.354 65.84C824.354 63.8133 824.741 61.96 825.514 60.28C826.287 58.5733 827.367 57.2267 828.754 56.24C830.141 55.2533 831.701 54.76 833.434 54.76C837.941 54.76 840.874 56.3467 842.234 59.52L843.234 55.16ZM837.714 70.2C838.327 70.2 838.967 70.0667 839.634 69.8C840.301 69.5067 840.874 69.0533 841.354 68.44C841.834 67.8 842.074 67.0133 842.074 66.08C842.074 64.4267 841.701 63.2533 840.954 62.56C840.207 61.84 839.101 61.48 837.634 61.48C836.354 61.48 835.341 61.9067 834.594 62.76C833.847 63.6133 833.474 64.72 833.474 66.08C833.474 67.3067 833.874 68.3067 834.674 69.08C835.501 69.8267 836.514 70.2 837.714 70.2ZM875.047 77.4C872.807 77.4 870.527 77.0933 868.207 76.48C865.914 75.84 863.754 74.88 861.727 73.6L865.927 67.88C867.154 68.76 868.634 69.4533 870.367 69.96C872.101 70.44 873.594 70.68 874.847 70.68C876.047 70.68 876.967 70.52 877.607 70.2C878.274 69.8533 878.607 69.4133 878.607 68.88C878.607 68.4533 878.447 68.12 878.127 67.88C877.807 67.64 877.367 67.52 876.807 67.52C876.461 67.52 876.061 67.5333 875.607 67.56C875.181 67.5867 874.834 67.6133 874.567 67.64C873.181 67.8 871.754 67.88 870.287 67.88C867.914 67.88 865.981 67.44 864.487 66.56C863.021 65.6533 862.287 64.1867 862.287 62.16C862.287 59.8133 863.394 58 865.607 56.72C867.821 55.4133 871.074 54.76 875.367 54.76C877.474 54.76 879.594 55.0667 881.727 55.68C883.887 56.2667 885.794 57.16 887.447 58.36L882.847 63C881.327 62.2 879.901 61.64 878.567 61.32C877.261 60.9733 875.941 60.8 874.607 60.8C873.674 60.8 872.874 60.9867 872.207 61.36C871.541 61.7333 871.207 62.16 871.207 62.64C871.207 63.0133 871.341 63.3067 871.607 63.52C871.901 63.7333 872.274 63.84 872.727 63.84C873.181 63.84 873.807 63.8 874.607 63.72C876.554 63.5867 878.007 63.52 878.967 63.52C881.741 63.52 883.887 63.9867 885.407 64.92C886.927 65.8533 887.687 67.28 887.687 69.2C887.687 72.08 886.567 74.1733 884.327 75.48C882.087 76.76 878.994 77.4 875.047 77.4ZM903.367 77.4C898.807 77.4 895.447 76.36 893.287 74.28C891.153 72.1733 890.087 69.4133 890.087 66C890.087 62.6667 891.153 59.96 893.287 57.88C895.447 55.8 898.807 54.76 903.367 54.76C906.433 54.76 908.993 55.2667 911.047 56.28C913.127 57.2667 914.66 58.6133 915.647 60.32C916.633 62 917.127 63.8933 917.127 66C917.127 69.44 915.98 72.2 913.687 74.28C911.42 76.36 907.98 77.4 903.367 77.4ZM903.527 70.6C905.26 70.6 906.553 70.1867 907.407 69.36C908.26 68.5333 908.687 67.4267 908.687 66.04C908.687 64.7333 908.26 63.6667 907.407 62.84C906.553 61.9867 905.26 61.56 903.527 61.56C901.793 61.56 900.527 61.9733 899.727 62.8C898.927 63.6267 898.527 64.7067 898.527 66.04C898.527 67.4267 898.927 68.5333 899.727 69.36C900.527 70.1867 901.793 70.6 903.527 70.6ZM932.82 77.4C928.26 77.4 924.9 76.36 922.74 74.28C920.607 72.1733 919.54 69.4133 919.54 66C919.54 62.6667 920.607 59.96 922.74 57.88C924.9 55.8 928.26 54.76 932.82 54.76C935.887 54.76 938.447 55.2667 940.5 56.28C942.58 57.2667 944.113 58.6133 945.1 60.32C946.087 62 946.58 63.8933 946.58 66C946.58 69.44 945.433 72.2 943.14 74.28C940.873 76.36 937.433 77.4 932.82 77.4ZM932.98 70.6C934.713 70.6 936.007 70.1867 936.86 69.36C937.713 68.5333 938.14 67.4267 938.14 66.04C938.14 64.7333 937.713 63.6667 936.86 62.84C936.007 61.9867 934.713 61.56 932.98 61.56C931.247 61.56 929.98 61.9733 929.18 62.8C928.38 63.6267 927.98 64.7067 927.98 66.04C927.98 67.4267 928.38 68.5333 929.18 69.36C929.98 70.1867 931.247 70.6 932.98 70.6ZM964.993 77C965.153 73.08 965.233 69.4667 965.233 66.16C965.233 64.9867 964.94 64.0533 964.353 63.36C963.793 62.6667 963.073 62.32 962.193 62.32C961.313 62.32 960.566 62.72 959.953 63.52C959.34 64.2933 958.98 65.36 958.873 66.72C958.82 68.7467 958.793 70.1867 958.793 71.04C958.793 72.8533 958.846 74.84 958.953 77H949.393C949.606 73.16 949.713 69.5333 949.713 66.12C949.713 62.7067 949.606 59.0533 949.393 55.16C951.153 55.24 952.5 55.28 953.433 55.28C954.42 55.28 955.766 55.24 957.473 55.16L958.633 61.04C959.246 58.9067 960.206 57.3333 961.513 56.32C962.82 55.28 964.34 54.76 966.073 54.76C967.673 54.76 969.06 55.12 970.233 55.84C971.406 56.5333 972.286 57.48 972.873 58.68C973.486 59.88 973.793 61.2267 973.793 62.72V68.48C973.793 72.0267 973.86 74.8667 973.993 77H964.993Z" fill="black"/>
<path d="M1034.11 66.08C1034.17 67.44 1034.59 68.5333 1035.39 69.36C1036.22 70.1867 1037.43 70.6 1039.03 70.6C1039.91 70.6 1040.7 70.44 1041.39 70.12C1042.09 69.7733 1042.73 69.2667 1043.31 68.6C1045.58 69.48 1048.23 70.24 1051.27 70.88C1050.39 72.9333 1048.9 74.5333 1046.79 75.68C1044.71 76.8267 1042.01 77.4 1038.67 77.4C1034.22 77.4 1030.93 76.36 1028.79 74.28C1026.66 72.2 1025.59 69.4667 1025.59 66.08C1025.59 62.6933 1026.66 59.96 1028.79 57.88C1030.93 55.8 1034.22 54.76 1038.67 54.76C1042.01 54.76 1044.71 55.3333 1046.79 56.48C1048.9 57.6267 1050.39 59.2267 1051.27 61.28C1048.9 61.7867 1046.25 62.5467 1043.31 63.56C1042.73 62.8933 1042.09 62.4 1041.39 62.08C1040.7 61.7333 1039.91 61.56 1039.03 61.56C1037.43 61.56 1036.22 61.9733 1035.39 62.8C1034.59 63.6267 1034.17 64.72 1034.11 66.08ZM1067.16 77.4C1062.6 77.4 1059.24 76.36 1057.08 74.28C1054.94 72.1733 1053.88 69.4133 1053.88 66C1053.88 62.6667 1054.94 59.96 1057.08 57.88C1059.24 55.8 1062.6 54.76 1067.16 54.76C1070.22 54.76 1072.78 55.2667 1074.84 56.28C1076.92 57.2667 1078.45 58.6133 1079.44 60.32C1080.42 62 1080.92 63.8933 1080.92 66C1080.92 69.44 1079.77 72.2 1077.48 74.28C1075.21 76.36 1071.77 77.4 1067.16 77.4ZM1067.32 70.6C1069.05 70.6 1070.34 70.1867 1071.2 69.36C1072.05 68.5333 1072.48 67.4267 1072.48 66.04C1072.48 64.7333 1072.05 63.6667 1071.2 62.84C1070.34 61.9867 1069.05 61.56 1067.32 61.56C1065.58 61.56 1064.32 61.9733 1063.52 62.8C1062.72 63.6267 1062.32 64.7067 1062.32 66.04C1062.32 67.4267 1062.72 68.5333 1063.52 69.36C1064.32 70.1867 1065.58 70.6 1067.32 70.6ZM1114.73 77C1114.94 73.5067 1115.05 69.8933 1115.05 66.16C1115.05 64.96 1114.74 64.0267 1114.13 63.36C1113.54 62.6667 1112.76 62.32 1111.77 62.32C1110.86 62.32 1110.08 62.72 1109.41 63.52C1108.77 64.32 1108.45 65.48 1108.45 67V66.96C1108.45 71.68 1108.52 75.0267 1108.65 77H1099.65C1099.81 73.08 1099.89 69.4667 1099.89 66.16C1099.89 64.9867 1099.6 64.0533 1099.01 63.36C1098.45 62.6667 1097.73 62.32 1096.85 62.32C1095.92 62.32 1095.13 62.72 1094.49 63.52C1093.88 64.2933 1093.52 65.36 1093.41 66.72C1093.36 68.7467 1093.33 70.1867 1093.33 71.04C1093.33 72.8533 1093.38 74.84 1093.49 77H1083.93C1084.14 73.16 1084.25 69.5333 1084.25 66.12C1084.25 62.7067 1084.14 59.0533 1083.93 55.16C1085.69 55.24 1087.04 55.28 1087.97 55.28C1088.96 55.28 1090.3 55.24 1092.01 55.16L1093.21 61.08C1093.82 58.92 1094.8 57.3333 1096.13 56.32C1097.46 55.28 1099 54.76 1100.73 54.76C1102.81 54.76 1104.5 55.3333 1105.81 56.48C1107.14 57.6267 1107.97 59.12 1108.29 60.96C1108.9 59.0667 1109.93 57.56 1111.37 56.44C1112.81 55.32 1114.45 54.76 1116.29 54.76C1118.69 54.76 1120.57 55.5733 1121.93 57.2C1123.29 58.8 1123.97 61 1123.97 63.8V70.44C1123.97 73.4533 1124 75.64 1124.05 77H1114.73ZM1133 52.8C1131.32 52.8 1130.06 52.3867 1129.24 51.56C1128.44 50.7333 1128.04 49.6533 1128.04 48.32C1128.04 47.0133 1128.44 45.9333 1129.24 45.08C1130.06 44.2267 1131.32 43.8 1133 43.8C1134.6 43.8 1135.82 44.24 1136.68 45.12C1137.53 45.9733 1137.96 47.04 1137.96 48.32C1137.96 49.6533 1137.54 50.7333 1136.72 51.56C1135.89 52.3867 1134.65 52.8 1133 52.8ZM1128.36 77C1128.54 72.7067 1128.64 69.16 1128.64 66.36C1128.64 63.0267 1128.53 59.2933 1128.32 55.16H1137.92C1137.7 59.1333 1137.6 62.8667 1137.6 66.36C1137.6 69.2933 1137.69 72.84 1137.88 77H1128.36ZM1157.14 77C1157.3 73.08 1157.38 69.4667 1157.38 66.16C1157.38 64.9867 1157.09 64.0533 1156.5 63.36C1155.94 62.6667 1155.22 62.32 1154.34 62.32C1153.46 62.32 1152.71 62.72 1152.1 63.52C1151.49 64.2933 1151.13 65.36 1151.02 66.72C1150.97 68.7467 1150.94 70.1867 1150.94 71.04C1150.94 72.8533 1150.99 74.84 1151.1 77H1141.54C1141.75 73.16 1141.86 69.5333 1141.86 66.12C1141.86 62.7067 1141.75 59.0533 1141.54 55.16C1143.3 55.24 1144.65 55.28 1145.58 55.28C1146.57 55.28 1147.91 55.24 1149.62 55.16L1150.78 61.04C1151.39 58.9067 1152.35 57.3333 1153.66 56.32C1154.97 55.28 1156.49 54.76 1158.22 54.76C1159.82 54.76 1161.21 55.12 1162.38 55.84C1163.55 56.5333 1164.43 57.48 1165.02 58.68C1165.63 59.88 1165.94 61.2267 1165.94 62.72V68.48C1165.94 72.0267 1166.01 74.8667 1166.14 77H1157.14ZM1188.23 55.16H1195.91C1195.78 59.5333 1195.71 65.7467 1195.71 73.8C1195.71 76.9733 1195.07 79.5733 1193.79 81.6C1192.54 83.6267 1190.87 85.0933 1188.79 86C1186.71 86.9333 1184.39 87.4 1181.83 87.4C1179.3 87.4 1177.03 87.0267 1175.03 86.28C1173.03 85.56 1171.51 84.5867 1170.47 83.36L1172.27 77.24C1173.71 78.0667 1175.07 78.6533 1176.35 79C1177.63 79.3733 1178.97 79.56 1180.35 79.56C1184.89 79.56 1187.15 77.64 1187.15 73.8C1187.15 73.24 1187.17 72.84 1187.19 72.6C1187.19 72.44 1187.19 72.2267 1187.19 71.96C1187.22 71.6933 1187.22 71.3467 1187.19 70.92C1185.83 74.7067 1182.95 76.6 1178.55 76.6C1176.77 76.6 1175.17 76.12 1173.75 75.16C1172.37 74.2 1171.29 72.9067 1170.51 71.28C1169.74 69.6267 1169.35 67.8133 1169.35 65.84C1169.35 63.8133 1169.74 61.96 1170.51 60.28C1171.29 58.5733 1172.37 57.2267 1173.75 56.24C1175.14 55.2533 1176.7 54.76 1178.43 54.76C1182.94 54.76 1185.87 56.3467 1187.23 59.52L1188.23 55.16ZM1182.71 70.2C1183.33 70.2 1183.97 70.0667 1184.63 69.8C1185.3 69.5067 1185.87 69.0533 1186.35 68.44C1186.83 67.8 1187.07 67.0133 1187.07 66.08C1187.07 64.4267 1186.7 63.2533 1185.95 62.56C1185.21 61.84 1184.1 61.48 1182.63 61.48C1181.35 61.48 1180.34 61.9067 1179.59 62.76C1178.85 63.6133 1178.47 64.72 1178.47 66.08C1178.47 67.3067 1178.87 68.3067 1179.67 69.08C1180.5 69.8267 1181.51 70.2 1182.71 70.2ZM1220.05 77.4C1217.81 77.4 1215.53 77.0933 1213.21 76.48C1210.91 75.84 1208.75 74.88 1206.73 73.6L1210.93 67.88C1212.15 68.76 1213.63 69.4533 1215.37 69.96C1217.1 70.44 1218.59 70.68 1219.85 70.68C1221.05 70.68 1221.97 70.52 1222.61 70.2C1223.27 69.8533 1223.61 69.4133 1223.61 68.88C1223.61 68.4533 1223.45 68.12 1223.13 67.88C1222.81 67.64 1222.37 67.52 1221.81 67.52C1221.46 67.52 1221.06 67.5333 1220.61 67.56C1220.18 67.5867 1219.83 67.6133 1219.57 67.64C1218.18 67.8 1216.75 67.88 1215.29 67.88C1212.91 67.88 1210.98 67.44 1209.49 66.56C1208.02 65.6533 1207.29 64.1867 1207.29 62.16C1207.29 59.8133 1208.39 58 1210.61 56.72C1212.82 55.4133 1216.07 54.76 1220.37 54.76C1222.47 54.76 1224.59 55.0667 1226.73 55.68C1228.89 56.2667 1230.79 57.16 1232.45 58.36L1227.85 63C1226.33 62.2 1224.9 61.64 1223.57 61.32C1222.26 60.9733 1220.94 60.8 1219.61 60.8C1218.67 60.8 1217.87 60.9867 1217.21 61.36C1216.54 61.7333 1216.21 62.16 1216.21 62.64C1216.21 63.0133 1216.34 63.3067 1216.61 63.52C1216.9 63.7333 1217.27 63.84 1217.73 63.84C1218.18 63.84 1218.81 63.8 1219.61 63.72C1221.55 63.5867 1223.01 63.52 1223.97 63.52C1226.74 63.52 1228.89 63.9867 1230.41 64.92C1231.93 65.8533 1232.69 67.28 1232.69 69.2C1232.69 72.08 1231.57 74.1733 1229.33 75.48C1227.09 76.76 1223.99 77.4 1220.05 77.4ZM1248.37 77.4C1243.81 77.4 1240.45 76.36 1238.29 74.28C1236.15 72.1733 1235.09 69.4133 1235.09 66C1235.09 62.6667 1236.15 59.96 1238.29 57.88C1240.45 55.8 1243.81 54.76 1248.37 54.76C1251.43 54.76 1253.99 55.2667 1256.05 56.28C1258.13 57.2667 1259.66 58.6133 1260.65 60.32C1261.63 62 1262.13 63.8933 1262.13 66C1262.13 69.44 1260.98 72.2 1258.69 74.28C1256.42 76.36 1252.98 77.4 1248.37 77.4ZM1248.53 70.6C1250.26 70.6 1251.55 70.1867 1252.41 69.36C1253.26 68.5333 1253.69 67.4267 1253.69 66.04C1253.69 64.7333 1253.26 63.6667 1252.41 62.84C1251.55 61.9867 1250.26 61.56 1248.53 61.56C1246.79 61.56 1245.53 61.9733 1244.73 62.8C1243.93 63.6267 1243.53 64.7067 1243.53 66.04C1243.53 67.4267 1243.93 68.5333 1244.73 69.36C1245.53 70.1867 1246.79 70.6 1248.53 70.6ZM1277.82 77.4C1273.26 77.4 1269.9 76.36 1267.74 74.28C1265.61 72.1733 1264.54 69.4133 1264.54 66C1264.54 62.6667 1265.61 59.96 1267.74 57.88C1269.9 55.8 1273.26 54.76 1277.82 54.76C1280.89 54.76 1283.45 55.2667 1285.5 56.28C1287.58 57.2667 1289.11 58.6133 1290.1 60.32C1291.09 62 1291.58 63.8933 1291.58 66C1291.58 69.44 1290.43 72.2 1288.14 74.28C1285.87 76.36 1282.43 77.4 1277.82 77.4ZM1277.98 70.6C1279.71 70.6 1281.01 70.1867 1281.86 69.36C1282.71 68.5333 1283.14 67.4267 1283.14 66.04C1283.14 64.7333 1282.71 63.6667 1281.86 62.84C1281.01 61.9867 1279.71 61.56 1277.98 61.56C1276.25 61.56 1274.98 61.9733 1274.18 62.8C1273.38 63.6267 1272.98 64.7067 1272.98 66.04C1272.98 67.4267 1273.38 68.5333 1274.18 69.36C1274.98 70.1867 1276.25 70.6 1277.98 70.6ZM1309.99 77C1310.15 73.08 1310.23 69.4667 1310.23 66.16C1310.23 64.9867 1309.94 64.0533 1309.35 63.36C1308.79 62.6667 1308.07 62.32 1307.19 62.32C1306.31 62.32 1305.57 62.72 1304.95 63.52C1304.34 64.2933 1303.98 65.36 1303.87 66.72C1303.82 68.7467 1303.79 70.1867 1303.79 71.04C1303.79 72.8533 1303.85 74.84 1303.95 77H1294.39C1294.61 73.16 1294.71 69.5333 1294.71 66.12C1294.71 62.7067 1294.61 59.0533 1294.39 55.16C1296.15 55.24 1297.5 55.28 1298.43 55.28C1299.42 55.28 1300.77 55.24 1302.47 55.16L1303.63 61.04C1304.25 58.9067 1305.21 57.3333 1306.51 56.32C1307.82 55.28 1309.34 54.76 1311.07 54.76C1312.67 54.76 1314.06 55.12 1315.23 55.84C1316.41 56.5333 1317.29 57.48 1317.87 58.68C1318.49 59.88 1318.79 61.2267 1318.79 62.72V68.48C1318.79 72.0267 1318.86 74.8667 1318.99 77H1309.99Z" fill="black"/>
<path d="M1379.11 66.08C1379.17 67.44 1379.59 68.5333 1380.39 69.36C1381.22 70.1867 1382.43 70.6 1384.03 70.6C1384.91 70.6 1385.7 70.44 1386.39 70.12C1387.09 69.7733 1387.73 69.2667 1388.31 68.6C1390.58 69.48 1393.23 70.24 1396.27 70.88C1395.39 72.9333 1393.9 74.5333 1391.79 75.68C1389.71 76.8267 1387.01 77.4 1383.67 77.4C1379.22 77.4 1375.93 76.36 1373.79 74.28C1371.66 72.2 1370.59 69.4667 1370.59 66.08C1370.59 62.6933 1371.66 59.96 1373.79 57.88C1375.93 55.8 1379.22 54.76 1383.67 54.76C1387.01 54.76 1389.71 55.3333 1391.79 56.48C1393.9 57.6267 1395.39 59.2267 1396.27 61.28C1393.9 61.7867 1391.25 62.5467 1388.31 63.56C1387.73 62.8933 1387.09 62.4 1386.39 62.08C1385.7 61.7333 1384.91 61.56 1384.03 61.56C1382.43 61.56 1381.22 61.9733 1380.39 62.8C1379.59 63.6267 1379.17 64.72 1379.11 66.08ZM1412.16 77.4C1407.6 77.4 1404.24 76.36 1402.08 74.28C1399.94 72.1733 1398.88 69.4133 1398.88 66C1398.88 62.6667 1399.94 59.96 1402.08 57.88C1404.24 55.8 1407.6 54.76 1412.16 54.76C1415.22 54.76 1417.78 55.2667 1419.84 56.28C1421.92 57.2667 1423.45 58.6133 1424.44 60.32C1425.42 62 1425.92 63.8933 1425.92 66C1425.92 69.44 1424.77 72.2 1422.48 74.28C1420.21 76.36 1416.77 77.4 1412.16 77.4ZM1412.32 70.6C1414.05 70.6 1415.34 70.1867 1416.2 69.36C1417.05 68.5333 1417.48 67.4267 1417.48 66.04C1417.48 64.7333 1417.05 63.6667 1416.2 62.84C1415.34 61.9867 1414.05 61.56 1412.32 61.56C1410.58 61.56 1409.32 61.9733 1408.52 62.8C1407.72 63.6267 1407.32 64.7067 1407.32 66.04C1407.32 67.4267 1407.72 68.5333 1408.52 69.36C1409.32 70.1867 1410.58 70.6 1412.32 70.6ZM1459.73 77C1459.94 73.5067 1460.05 69.8933 1460.05 66.16C1460.05 64.96 1459.74 64.0267 1459.13 63.36C1458.54 62.6667 1457.76 62.32 1456.77 62.32C1455.86 62.32 1455.08 62.72 1454.41 63.52C1453.77 64.32 1453.45 65.48 1453.45 67V66.96C1453.45 71.68 1453.52 75.0267 1453.65 77H1444.65C1444.81 73.08 1444.89 69.4667 1444.89 66.16C1444.89 64.9867 1444.6 64.0533 1444.01 63.36C1443.45 62.6667 1442.73 62.32 1441.85 62.32C1440.92 62.32 1440.13 62.72 1439.49 63.52C1438.88 64.2933 1438.52 65.36 1438.41 66.72C1438.36 68.7467 1438.33 70.1867 1438.33 71.04C1438.33 72.8533 1438.38 74.84 1438.49 77H1428.93C1429.14 73.16 1429.25 69.5333 1429.25 66.12C1429.25 62.7067 1429.14 59.0533 1428.93 55.16C1430.69 55.24 1432.04 55.28 1432.97 55.28C1433.96 55.28 1435.3 55.24 1437.01 55.16L1438.21 61.08C1438.82 58.92 1439.8 57.3333 1441.13 56.32C1442.46 55.28 1444 54.76 1445.73 54.76C1447.81 54.76 1449.5 55.3333 1450.81 56.48C1452.14 57.6267 1452.97 59.12 1453.29 60.96C1453.9 59.0667 1454.93 57.56 1456.37 56.44C1457.81 55.32 1459.45 54.76 1461.29 54.76C1463.69 54.76 1465.57 55.5733 1466.93 57.2C1468.29 58.8 1468.97 61 1468.97 63.8V70.44C1468.97 73.4533 1469 75.64 1469.05 77H1459.73ZM1478 52.8C1476.32 52.8 1475.06 52.3867 1474.24 51.56C1473.44 50.7333 1473.04 49.6533 1473.04 48.32C1473.04 47.0133 1473.44 45.9333 1474.24 45.08C1475.06 44.2267 1476.32 43.8 1478 43.8C1479.6 43.8 1480.82 44.24 1481.68 45.12C1482.53 45.9733 1482.96 47.04 1482.96 48.32C1482.96 49.6533 1482.54 50.7333 1481.72 51.56C1480.89 52.3867 1479.65 52.8 1478 52.8ZM1473.36 77C1473.54 72.7067 1473.64 69.16 1473.64 66.36C1473.64 63.0267 1473.53 59.2933 1473.32 55.16H1482.92C1482.7 59.1333 1482.6 62.8667 1482.6 66.36C1482.6 69.2933 1482.69 72.84 1482.88 77H1473.36ZM1502.14 77C1502.3 73.08 1502.38 69.4667 1502.38 66.16C1502.38 64.9867 1502.09 64.0533 1501.5 63.36C1500.94 62.6667 1500.22 62.32 1499.34 62.32C1498.46 62.32 1497.71 62.72 1497.1 63.52C1496.49 64.2933 1496.13 65.36 1496.02 66.72C1495.97 68.7467 1495.94 70.1867 1495.94 71.04C1495.94 72.8533 1495.99 74.84 1496.1 77H1486.54C1486.75 73.16 1486.86 69.5333 1486.86 66.12C1486.86 62.7067 1486.75 59.0533 1486.54 55.16C1488.3 55.24 1489.65 55.28 1490.58 55.28C1491.57 55.28 1492.91 55.24 1494.62 55.16L1495.78 61.04C1496.39 58.9067 1497.35 57.3333 1498.66 56.32C1499.97 55.28 1501.49 54.76 1503.22 54.76C1504.82 54.76 1506.21 55.12 1507.38 55.84C1508.55 56.5333 1509.43 57.48 1510.02 58.68C1510.63 59.88 1510.94 61.2267 1510.94 62.72V68.48C1510.94 72.0267 1511.01 74.8667 1511.14 77H1502.14ZM1533.23 55.16H1540.91C1540.78 59.5333 1540.71 65.7467 1540.71 73.8C1540.71 76.9733 1540.07 79.5733 1538.79 81.6C1537.54 83.6267 1535.87 85.0933 1533.79 86C1531.71 86.9333 1529.39 87.4 1526.83 87.4C1524.3 87.4 1522.03 87.0267 1520.03 86.28C1518.03 85.56 1516.51 84.5867 1515.47 83.36L1517.27 77.24C1518.71 78.0667 1520.07 78.6533 1521.35 79C1522.63 79.3733 1523.97 79.56 1525.35 79.56C1529.89 79.56 1532.15 77.64 1532.15 73.8C1532.15 73.24 1532.17 72.84 1532.19 72.6C1532.19 72.44 1532.19 72.2267 1532.19 71.96C1532.22 71.6933 1532.22 71.3467 1532.19 70.92C1530.83 74.7067 1527.95 76.6 1523.55 76.6C1521.77 76.6 1520.17 76.12 1518.75 75.16C1517.37 74.2 1516.29 72.9067 1515.51 71.28C1514.74 69.6267 1514.35 67.8133 1514.35 65.84C1514.35 63.8133 1514.74 61.96 1515.51 60.28C1516.29 58.5733 1517.37 57.2267 1518.75 56.24C1520.14 55.2533 1521.7 54.76 1523.43 54.76C1527.94 54.76 1530.87 56.3467 1532.23 59.52L1533.23 55.16ZM1527.71 70.2C1528.33 70.2 1528.97 70.0667 1529.63 69.8C1530.3 69.5067 1530.87 69.0533 1531.35 68.44C1531.83 67.8 1532.07 67.0133 1532.07 66.08C1532.07 64.4267 1531.7 63.2533 1530.95 62.56C1530.21 61.84 1529.1 61.48 1527.63 61.48C1526.35 61.48 1525.34 61.9067 1524.59 62.76C1523.85 63.6133 1523.47 64.72 1523.47 66.08C1523.47 67.3067 1523.87 68.3067 1524.67 69.08C1525.5 69.8267 1526.51 70.2 1527.71 70.2ZM1565.05 77.4C1562.81 77.4 1560.53 77.0933 1558.21 76.48C1555.91 75.84 1553.75 74.88 1551.73 73.6L1555.93 67.88C1557.15 68.76 1558.63 69.4533 1560.37 69.96C1562.1 70.44 1563.59 70.68 1564.85 70.68C1566.05 70.68 1566.97 70.52 1567.61 70.2C1568.27 69.8533 1568.61 69.4133 1568.61 68.88C1568.61 68.4533 1568.45 68.12 1568.13 67.88C1567.81 67.64 1567.37 67.52 1566.81 67.52C1566.46 67.52 1566.06 67.5333 1565.61 67.56C1565.18 67.5867 1564.83 67.6133 1564.57 67.64C1563.18 67.8 1561.75 67.88 1560.29 67.88C1557.91 67.88 1555.98 67.44 1554.49 66.56C1553.02 65.6533 1552.29 64.1867 1552.29 62.16C1552.29 59.8133 1553.39 58 1555.61 56.72C1557.82 55.4133 1561.07 54.76 1565.37 54.76C1567.47 54.76 1569.59 55.0667 1571.73 55.68C1573.89 56.2667 1575.79 57.16 1577.45 58.36L1572.85 63C1571.33 62.2 1569.9 61.64 1568.57 61.32C1567.26 60.9733 1565.94 60.8 1564.61 60.8C1563.67 60.8 1562.87 60.9867 1562.21 61.36C1561.54 61.7333 1561.21 62.16 1561.21 62.64C1561.21 63.0133 1561.34 63.3067 1561.61 63.52C1561.9 63.7333 1562.27 63.84 1562.73 63.84C1563.18 63.84 1563.81 63.8 1564.61 63.72C1566.55 63.5867 1568.01 63.52 1568.97 63.52C1571.74 63.52 1573.89 63.9867 1575.41 64.92C1576.93 65.8533 1577.69 67.28 1577.69 69.2C1577.69 72.08 1576.57 74.1733 1574.33 75.48C1572.09 76.76 1568.99 77.4 1565.05 77.4ZM1593.37 77.4C1588.81 77.4 1585.45 76.36 1583.29 74.28C1581.15 72.1733 1580.09 69.4133 1580.09 66C1580.09 62.6667 1581.15 59.96 1583.29 57.88C1585.45 55.8 1588.81 54.76 1593.37 54.76C1596.43 54.76 1598.99 55.2667 1601.05 56.28C1603.13 57.2667 1604.66 58.6133 1605.65 60.32C1606.63 62 1607.13 63.8933 1607.13 66C1607.13 69.44 1605.98 72.2 1603.69 74.28C1601.42 76.36 1597.98 77.4 1593.37 77.4ZM1593.53 70.6C1595.26 70.6 1596.55 70.1867 1597.41 69.36C1598.26 68.5333 1598.69 67.4267 1598.69 66.04C1598.69 64.7333 1598.26 63.6667 1597.41 62.84C1596.55 61.9867 1595.26 61.56 1593.53 61.56C1591.79 61.56 1590.53 61.9733 1589.73 62.8C1588.93 63.6267 1588.53 64.7067 1588.53 66.04C1588.53 67.4267 1588.93 68.5333 1589.73 69.36C1590.53 70.1867 1591.79 70.6 1593.53 70.6ZM1622.82 77.4C1618.26 77.4 1614.9 76.36 1612.74 74.28C1610.61 72.1733 1609.54 69.4133 1609.54 66C1609.54 62.6667 1610.61 59.96 1612.74 57.88C1614.9 55.8 1618.26 54.76 1622.82 54.76C1625.89 54.76 1628.45 55.2667 1630.5 56.28C1632.58 57.2667 1634.11 58.6133 1635.1 60.32C1636.09 62 1636.58 63.8933 1636.58 66C1636.58 69.44 1635.43 72.2 1633.14 74.28C1630.87 76.36 1627.43 77.4 1622.82 77.4ZM1622.98 70.6C1624.71 70.6 1626.01 70.1867 1626.86 69.36C1627.71 68.5333 1628.14 67.4267 1628.14 66.04C1628.14 64.7333 1627.71 63.6667 1626.86 62.84C1626.01 61.9867 1624.71 61.56 1622.98 61.56C1621.25 61.56 1619.98 61.9733 1619.18 62.8C1618.38 63.6267 1617.98 64.7067 1617.98 66.04C1617.98 67.4267 1618.38 68.5333 1619.18 69.36C1619.98 70.1867 1621.25 70.6 1622.98 70.6ZM1654.99 77C1655.15 73.08 1655.23 69.4667 1655.23 66.16C1655.23 64.9867 1654.94 64.0533 1654.35 63.36C1653.79 62.6667 1653.07 62.32 1652.19 62.32C1651.31 62.32 1650.57 62.72 1649.95 63.52C1649.34 64.2933 1648.98 65.36 1648.87 66.72C1648.82 68.7467 1648.79 70.1867 1648.79 71.04C1648.79 72.8533 1648.85 74.84 1648.95 77H1639.39C1639.61 73.16 1639.71 69.5333 1639.71 66.12C1639.71 62.7067 1639.61 59.0533 1639.39 55.16C1641.15 55.24 1642.5 55.28 1643.43 55.28C1644.42 55.28 1645.77 55.24 1647.47 55.16L1648.63 61.04C1649.25 58.9067 1650.21 57.3333 1651.51 56.32C1652.82 55.28 1654.34 54.76 1656.07 54.76C1657.67 54.76 1659.06 55.12 1660.23 55.84C1661.41 56.5333 1662.29 57.48 1662.87 58.68C1663.49 59.88 1663.79 61.2267 1663.79 62.72V68.48C1663.79 72.0267 1663.86 74.8667 1663.99 77H1654.99Z" fill="black"/>
<path d="M1724.11 66.08C1724.17 67.44 1724.59 68.5333 1725.39 69.36C1726.22 70.1867 1727.43 70.6 1729.03 70.6C1729.91 70.6 1730.7 70.44 1731.39 70.12C1732.09 69.7733 1732.73 69.2667 1733.31 68.6C1735.58 69.48 1738.23 70.24 1741.27 70.88C1740.39 72.9333 1738.9 74.5333 1736.79 75.68C1734.71 76.8267 1732.01 77.4 1728.67 77.4C1724.22 77.4 1720.93 76.36 1718.79 74.28C1716.66 72.2 1715.59 69.4667 1715.59 66.08C1715.59 62.6933 1716.66 59.96 1718.79 57.88C1720.93 55.8 1724.22 54.76 1728.67 54.76C1732.01 54.76 1734.71 55.3333 1736.79 56.48C1738.9 57.6267 1740.39 59.2267 1741.27 61.28C1738.9 61.7867 1736.25 62.5467 1733.31 63.56C1732.73 62.8933 1732.09 62.4 1731.39 62.08C1730.7 61.7333 1729.91 61.56 1729.03 61.56C1727.43 61.56 1726.22 61.9733 1725.39 62.8C1724.59 63.6267 1724.17 64.72 1724.11 66.08ZM1757.16 77.4C1752.6 77.4 1749.24 76.36 1747.08 74.28C1744.94 72.1733 1743.88 69.4133 1743.88 66C1743.88 62.6667 1744.94 59.96 1747.08 57.88C1749.24 55.8 1752.6 54.76 1757.16 54.76C1760.22 54.76 1762.78 55.2667 1764.84 56.28C1766.92 57.2667 1768.45 58.6133 1769.44 60.32C1770.42 62 1770.92 63.8933 1770.92 66C1770.92 69.44 1769.77 72.2 1767.48 74.28C1765.21 76.36 1761.77 77.4 1757.16 77.4ZM1757.32 70.6C1759.05 70.6 1760.34 70.1867 1761.2 69.36C1762.05 68.5333 1762.48 67.4267 1762.48 66.04C1762.48 64.7333 1762.05 63.6667 1761.2 62.84C1760.34 61.9867 1759.05 61.56 1757.32 61.56C1755.58 61.56 1754.32 61.9733 1753.52 62.8C1752.72 63.6267 1752.32 64.7067 1752.32 66.04C1752.32 67.4267 1752.72 68.5333 1753.52 69.36C1754.32 70.1867 1755.58 70.6 1757.32 70.6ZM1804.73 77C1804.94 73.5067 1805.05 69.8933 1805.05 66.16C1805.05 64.96 1804.74 64.0267 1804.13 63.36C1803.54 62.6667 1802.76 62.32 1801.77 62.32C1800.86 62.32 1800.08 62.72 1799.41 63.52C1798.77 64.32 1798.45 65.48 1798.45 67V66.96C1798.45 71.68 1798.52 75.0267 1798.65 77H1789.65C1789.81 73.08 1789.89 69.4667 1789.89 66.16C1789.89 64.9867 1789.6 64.0533 1789.01 63.36C1788.45 62.6667 1787.73 62.32 1786.85 62.32C1785.92 62.32 1785.13 62.72 1784.49 63.52C1783.88 64.2933 1783.52 65.36 1783.41 66.72C1783.36 68.7467 1783.33 70.1867 1783.33 71.04C1783.33 72.8533 1783.38 74.84 1783.49 77H1773.93C1774.14 73.16 1774.25 69.5333 1774.25 66.12C1774.25 62.7067 1774.14 59.0533 1773.93 55.16C1775.69 55.24 1777.04 55.28 1777.97 55.28C1778.96 55.28 1780.3 55.24 1782.01 55.16L1783.21 61.08C1783.82 58.92 1784.8 57.3333 1786.13 56.32C1787.46 55.28 1789 54.76 1790.73 54.76C1792.81 54.76 1794.5 55.3333 1795.81 56.48C1797.14 57.6267 1797.97 59.12 1798.29 60.96C1798.9 59.0667 1799.93 57.56 1801.37 56.44C1802.81 55.32 1804.45 54.76 1806.29 54.76C1808.69 54.76 1810.57 55.5733 1811.93 57.2C1813.29 58.8 1813.97 61 1813.97 63.8V70.44C1813.97 73.4533 1814 75.64 1814.05 77H1804.73ZM1823 52.8C1821.32 52.8 1820.06 52.3867 1819.24 51.56C1818.44 50.7333 1818.04 49.6533 1818.04 48.32C1818.04 47.0133 1818.44 45.9333 1819.24 45.08C1820.06 44.2267 1821.32 43.8 1823 43.8C1824.6 43.8 1825.82 44.24 1826.68 45.12C1827.53 45.9733 1827.96 47.04 1827.96 48.32C1827.96 49.6533 1827.54 50.7333 1826.72 51.56C1825.89 52.3867 1824.65 52.8 1823 52.8ZM1818.36 77C1818.54 72.7067 1818.64 69.16 1818.64 66.36C1818.64 63.0267 1818.53 59.2933 1818.32 55.16H1827.92C1827.7 59.1333 1827.6 62.8667 1827.6 66.36C1827.6 69.2933 1827.69 72.84 1827.88 77H1818.36ZM1847.14 77C1847.3 73.08 1847.38 69.4667 1847.38 66.16C1847.38 64.9867 1847.09 64.0533 1846.5 63.36C1845.94 62.6667 1845.22 62.32 1844.34 62.32C1843.46 62.32 1842.71 62.72 1842.1 63.52C1841.49 64.2933 1841.13 65.36 1841.02 66.72C1840.97 68.7467 1840.94 70.1867 1840.94 71.04C1840.94 72.8533 1840.99 74.84 1841.1 77H1831.54C1831.75 73.16 1831.86 69.5333 1831.86 66.12C1831.86 62.7067 1831.75 59.0533 1831.54 55.16C1833.3 55.24 1834.65 55.28 1835.58 55.28C1836.57 55.28 1837.91 55.24 1839.62 55.16L1840.78 61.04C1841.39 58.9067 1842.35 57.3333 1843.66 56.32C1844.97 55.28 1846.49 54.76 1848.22 54.76C1849.82 54.76 1851.21 55.12 1852.38 55.84C1853.55 56.5333 1854.43 57.48 1855.02 58.68C1855.63 59.88 1855.94 61.2267 1855.94 62.72V68.48C1855.94 72.0267 1856.01 74.8667 1856.14 77H1847.14ZM1878.23 55.16H1885.91C1885.78 59.5333 1885.71 65.7467 1885.71 73.8C1885.71 76.9733 1885.07 79.5733 1883.79 81.6C1882.54 83.6267 1880.87 85.0933 1878.79 86C1876.71 86.9333 1874.39 87.4 1871.83 87.4C1869.3 87.4 1867.03 87.0267 1865.03 86.28C1863.03 85.56 1861.51 84.5867 1860.47 83.36L1862.27 77.24C1863.71 78.0667 1865.07 78.6533 1866.35 79C1867.63 79.3733 1868.97 79.56 1870.35 79.56C1874.89 79.56 1877.15 77.64 1877.15 73.8C1877.15 73.24 1877.17 72.84 1877.19 72.6C1877.19 72.44 1877.19 72.2267 1877.19 71.96C1877.22 71.6933 1877.22 71.3467 1877.19 70.92C1875.83 74.7067 1872.95 76.6 1868.55 76.6C1866.77 76.6 1865.17 76.12 1863.75 75.16C1862.37 74.2 1861.29 72.9067 1860.51 71.28C1859.74 69.6267 1859.35 67.8133 1859.35 65.84C1859.35 63.8133 1859.74 61.96 1860.51 60.28C1861.29 58.5733 1862.37 57.2267 1863.75 56.24C1865.14 55.2533 1866.7 54.76 1868.43 54.76C1872.94 54.76 1875.87 56.3467 1877.23 59.52L1878.23 55.16ZM1872.71 70.2C1873.33 70.2 1873.97 70.0667 1874.63 69.8C1875.3 69.5067 1875.87 69.0533 1876.35 68.44C1876.83 67.8 1877.07 67.0133 1877.07 66.08C1877.07 64.4267 1876.7 63.2533 1875.95 62.56C1875.21 61.84 1874.1 61.48 1872.63 61.48C1871.35 61.48 1870.34 61.9067 1869.59 62.76C1868.85 63.6133 1868.47 64.72 1868.47 66.08C1868.47 67.3067 1868.87 68.3067 1869.67 69.08C1870.5 69.8267 1871.51 70.2 1872.71 70.2ZM1910.05 77.4C1907.81 77.4 1905.53 77.0933 1903.21 76.48C1900.91 75.84 1898.75 74.88 1896.73 73.6L1900.93 67.88C1902.15 68.76 1903.63 69.4533 1905.37 69.96C1907.1 70.44 1908.59 70.68 1909.85 70.68C1911.05 70.68 1911.97 70.52 1912.61 70.2C1913.27 69.8533 1913.61 69.4133 1913.61 68.88C1913.61 68.4533 1913.45 68.12 1913.13 67.88C1912.81 67.64 1912.37 67.52 1911.81 67.52C1911.46 67.52 1911.06 67.5333 1910.61 67.56C1910.18 67.5867 1909.83 67.6133 1909.57 67.64C1908.18 67.8 1906.75 67.88 1905.29 67.88C1902.91 67.88 1900.98 67.44 1899.49 66.56C1898.02 65.6533 1897.29 64.1867 1897.29 62.16C1897.29 59.8133 1898.39 58 1900.61 56.72C1902.82 55.4133 1906.07 54.76 1910.37 54.76C1912.47 54.76 1914.59 55.0667 1916.73 55.68C1918.89 56.2667 1920.79 57.16 1922.45 58.36L1917.85 63C1916.33 62.2 1914.9 61.64 1913.57 61.32C1912.26 60.9733 1910.94 60.8 1909.61 60.8C1908.67 60.8 1907.87 60.9867 1907.21 61.36C1906.54 61.7333 1906.21 62.16 1906.21 62.64C1906.21 63.0133 1906.34 63.3067 1906.61 63.52C1906.9 63.7333 1907.27 63.84 1907.73 63.84C1908.18 63.84 1908.81 63.8 1909.61 63.72C1911.55 63.5867 1913.01 63.52 1913.97 63.52C1916.74 63.52 1918.89 63.9867 1920.41 64.92C1921.93 65.8533 1922.69 67.28 1922.69 69.2C1922.69 72.08 1921.57 74.1733 1919.33 75.48C1917.09 76.76 1913.99 77.4 1910.05 77.4ZM1938.37 77.4C1933.81 77.4 1930.45 76.36 1928.29 74.28C1926.15 72.1733 1925.09 69.4133 1925.09 66C1925.09 62.6667 1926.15 59.96 1928.29 57.88C1930.45 55.8 1933.81 54.76 1938.37 54.76C1941.43 54.76 1943.99 55.2667 1946.05 56.28C1948.13 57.2667 1949.66 58.6133 1950.65 60.32C1951.63 62 1952.13 63.8933 1952.13 66C1952.13 69.44 1950.98 72.2 1948.69 74.28C1946.42 76.36 1942.98 77.4 1938.37 77.4ZM1938.53 70.6C1940.26 70.6 1941.55 70.1867 1942.41 69.36C1943.26 68.5333 1943.69 67.4267 1943.69 66.04C1943.69 64.7333 1943.26 63.6667 1942.41 62.84C1941.55 61.9867 1940.26 61.56 1938.53 61.56C1936.79 61.56 1935.53 61.9733 1934.73 62.8C1933.93 63.6267 1933.53 64.7067 1933.53 66.04C1933.53 67.4267 1933.93 68.5333 1934.73 69.36C1935.53 70.1867 1936.79 70.6 1938.53 70.6ZM1967.82 77.4C1963.26 77.4 1959.9 76.36 1957.74 74.28C1955.61 72.1733 1954.54 69.4133 1954.54 66C1954.54 62.6667 1955.61 59.96 1957.74 57.88C1959.9 55.8 1963.26 54.76 1967.82 54.76C1970.89 54.76 1973.45 55.2667 1975.5 56.28C1977.58 57.2667 1979.11 58.6133 1980.1 60.32C1981.09 62 1981.58 63.8933 1981.58 66C1981.58 69.44 1980.43 72.2 1978.14 74.28C1975.87 76.36 1972.43 77.4 1967.82 77.4ZM1967.98 70.6C1969.71 70.6 1971.01 70.1867 1971.86 69.36C1972.71 68.5333 1973.14 67.4267 1973.14 66.04C1973.14 64.7333 1972.71 63.6667 1971.86 62.84C1971.01 61.9867 1969.71 61.56 1967.98 61.56C1966.25 61.56 1964.98 61.9733 1964.18 62.8C1963.38 63.6267 1962.98 64.7067 1962.98 66.04C1962.98 67.4267 1963.38 68.5333 1964.18 69.36C1964.98 70.1867 1966.25 70.6 1967.98 70.6ZM1999.99 77C2000.15 73.08 2000.23 69.4667 2000.23 66.16C2000.23 64.9867 1999.94 64.0533 1999.35 63.36C1998.79 62.6667 1998.07 62.32 1997.19 62.32C1996.31 62.32 1995.57 62.72 1994.95 63.52C1994.34 64.2933 1993.98 65.36 1993.87 66.72C1993.82 68.7467 1993.79 70.1867 1993.79 71.04C1993.79 72.8533 1993.85 74.84 1993.95 77H1984.39C1984.61 73.16 1984.71 69.5333 1984.71 66.12C1984.71 62.7067 1984.61 59.0533 1984.39 55.16C1986.15 55.24 1987.5 55.28 1988.43 55.28C1989.42 55.28 1990.77 55.24 1992.47 55.16L1993.63 61.04C1994.25 58.9067 1995.21 57.3333 1996.51 56.32C1997.82 55.28 1999.34 54.76 2001.07 54.76C2002.67 54.76 2004.06 55.12 2005.23 55.84C2006.41 56.5333 2007.29 57.48 2007.87 58.68C2008.49 59.88 2008.79 61.2267 2008.79 62.72V68.48C2008.79 72.0267 2008.86 74.8667 2008.99 77H1999.99Z" fill="black"/>
</g>
<defs>
<clipPath id="clip0_638_654">
<rect width="2000" height="131.833" fill="white"/>
</clipPath>
</defs>
</svg>
